<svg width="800px" height="800px" fill="#000000" style="clip-rule:evenodd;fill-rule:evenodd;stroke-linejoin:round;stroke-miterlimit:2" version="1.1" viewBox="0 0 1069 1069" xmlns="http://www.w3.org/2000/svg">
	<rect width="1069" height="1069" ry="172.52" style="clip-rule:evenodd;fill:none;paint-order:markers fill stroke"/>
	<rect x="70.265" y="137.49" width="928.47" height="794.02" ry="5.9054e-6" style="clip-rule:evenodd;fill-rule:evenodd;fill:#f00;paint-order:markers fill stroke;stroke-linejoin:round;stroke-miterlimit:2;stroke-width:16.035;stroke:#f00"/>
	<g transform="matrix(.98731 0 0 .98731 6.7639 6.7679)">
		<path d="m716.7 661.79c14.814-8.5362 23.942-24.332 23.942-41.429 0-17.097-9.1283-32.893-23.942-41.429l-317.52-182.95c-14.794-8.5239-33.012-8.5117-47.796.0321-14.783 8.5438-23.889 24.323-23.889 41.397v365.9c0 17.074 9.1054 32.853 23.889 41.397 14.783 8.5438 33.002 8.5561 47.796.0321z" style="clip-rule:evenodd;fill-rule:evenodd;fill:#fff;stroke-linejoin:round;stroke-miterlimit:2;stroke-width:1.5301"/>
		<path transform="matrix(1.0894,0,0,1.0894,-48.145,-69.345)" d="m45.265 325.14v458.33c0 52.49 20.852 102.83 57.968 139.95 37.117 37.117 87.458 57.969 139.95 57.969h583.33c52.491 0 102.83-20.852 139.95-57.969 37.117-37.117 57.969-87.458 57.969-139.95v-458.33c0-52.49-20.852-102.83-57.969-139.95-37.116-37.117-87.457-57.969-139.95-57.969h-583.33c-52.491 0-102.83 20.852-139.95 57.969-37.116 37.117-57.968 87.458-57.968 139.95zm62.5 56.213v402.12c0 35.915 14.267 70.358 39.662 95.754 25.396 25.396 59.84 39.663 95.755 39.663h583.33c35.915 0 70.359-14.267 95.754-39.663 25.396-25.396 39.663-59.839 39.663-95.754v-458.33c0-35.915-14.267-70.358-39.663-95.754-25.395-25.396-59.839-39.663-95.754-39.663h-583.33c-35.915 0-70.359 14.267-95.755 39.663-23.909 23.91-37.955 55.84-39.516 89.467h676.94c17.248 0 31.25 14.003 31.25 31.25 0 17.248-14.002 31.25-31.25 31.25zm123.18-160.38c18.253 0 33.073 14.82 33.073 33.073 0 18.254-14.82 33.074-33.073 33.074-18.254 0-33.074-14.82-33.074-33.074 0-18.253 14.82-33.073 33.074-33.073zm104.17 0c18.254 0 33.074 14.82 33.074 33.073 0 18.254-14.82 33.074-33.074 33.074-18.253 0-33.073-14.82-33.073-33.074 0-18.253 14.82-33.073 33.073-33.073zm104.17 0c18.254 0 33.073 14.82 33.073 33.073 0 18.254-14.819 33.074-33.073 33.074s-33.073-14.82-33.073-33.074c0-18.253 14.819-33.073 33.073-33.073z" style="clip-rule:evenodd;fill:#fff;stroke-linejoin:round;stroke-miterlimit:2;stroke-width:14.719;stroke:#f00"/>
	</g>
</svg>
